<mxfile host="app.diagrams.net" modified="2020-10-30T06:03:32.110Z" agent="5.0 (Macintosh; Intel Mac OS X 10_14_6) AppleWebKit/537.36 (KHTML, like Gecko) Chrome/86.0.4240.111 Safari/537.36" etag="Mi_tcXkqk-VmpQuyg9y9" version="13.8.6" type="github">
  <diagram id="3PPrttd8GePgthYJPEef" name="Page-1">
    <mxGraphModel dx="1666" dy="642" grid="1" gridSize="10" guides="1" tooltips="1" connect="1" arrows="1" fold="1" page="1" pageScale="1" pageWidth="827" pageHeight="1169" math="0" shadow="0">
      <root>
        <mxCell id="0" />
        <mxCell id="1" parent="0" />
        <mxCell id="5B7SjK0EThuRWsHx0DVS-1" value="" style="rounded=0;whiteSpace=wrap;html=1;fillColor=#CCCCFF;" parent="1" vertex="1">
          <mxGeometry x="280" y="160" width="180" height="80" as="geometry" />
        </mxCell>
        <mxCell id="5B7SjK0EThuRWsHx0DVS-2" value="" style="rounded=0;whiteSpace=wrap;html=1;fillColor=#CC99FF;" parent="1" vertex="1">
          <mxGeometry x="280" y="330" width="180" height="80" as="geometry" />
        </mxCell>
        <mxCell id="5B7SjK0EThuRWsHx0DVS-3" value="&lt;b&gt;机房A&lt;/b&gt;" style="text;html=1;strokeColor=none;fillColor=none;align=center;verticalAlign=middle;whiteSpace=wrap;rounded=0;" parent="1" vertex="1">
          <mxGeometry x="314.75" y="160" width="110" height="20" as="geometry" />
        </mxCell>
        <mxCell id="5B7SjK0EThuRWsHx0DVS-4" value="&lt;b&gt;机房B&lt;/b&gt;" style="text;html=1;strokeColor=none;fillColor=none;align=center;verticalAlign=middle;whiteSpace=wrap;rounded=0;" parent="1" vertex="1">
          <mxGeometry x="349.75" y="390" width="40" height="20" as="geometry" />
        </mxCell>
        <mxCell id="kLn1nzZfV7JTCVWZD0Uv-1" style="edgeStyle=orthogonalEdgeStyle;rounded=0;orthogonalLoop=1;jettySize=auto;html=1;exitX=0.5;exitY=0;exitDx=0;exitDy=0;curved=1;entryX=0;entryY=0;entryDx=0;entryDy=43.4921240919884;entryPerimeter=0;" edge="1" parent="1" source="5B7SjK0EThuRWsHx0DVS-7" target="5B7SjK0EThuRWsHx0DVS-35">
          <mxGeometry relative="1" as="geometry">
            <mxPoint x="550" y="130" as="targetPoint" />
          </mxGeometry>
        </mxCell>
        <mxCell id="kLn1nzZfV7JTCVWZD0Uv-16" value="Subscribe" style="edgeLabel;html=1;align=center;verticalAlign=middle;resizable=0;points=[];" vertex="1" connectable="0" parent="kLn1nzZfV7JTCVWZD0Uv-1">
          <mxGeometry x="0.4483" y="-2" relative="1" as="geometry">
            <mxPoint x="-1" as="offset" />
          </mxGeometry>
        </mxCell>
        <mxCell id="kLn1nzZfV7JTCVWZD0Uv-3" style="edgeStyle=orthogonalEdgeStyle;curved=1;rounded=0;orthogonalLoop=1;jettySize=auto;html=1;exitX=0.75;exitY=0;exitDx=0;exitDy=0;entryX=0.5;entryY=0;entryDx=0;entryDy=0;entryPerimeter=0;" edge="1" parent="1" source="5B7SjK0EThuRWsHx0DVS-7" target="3F4RCSw5QOM7stesSiCV-3">
          <mxGeometry relative="1" as="geometry">
            <mxPoint x="600" y="150" as="targetPoint" />
          </mxGeometry>
        </mxCell>
        <mxCell id="kLn1nzZfV7JTCVWZD0Uv-17" value="Subscribe" style="edgeLabel;html=1;align=center;verticalAlign=middle;resizable=0;points=[];" vertex="1" connectable="0" parent="kLn1nzZfV7JTCVWZD0Uv-3">
          <mxGeometry x="0.2397" relative="1" as="geometry">
            <mxPoint x="1" as="offset" />
          </mxGeometry>
        </mxCell>
        <mxCell id="5B7SjK0EThuRWsHx0DVS-7" value="Topic-01" style="html=1;whiteSpace=wrap;container=1;recursiveResize=0;collapsible=0;" parent="1" vertex="1">
          <mxGeometry x="280" y="215" width="90" height="25" as="geometry" />
        </mxCell>
        <mxCell id="kLn1nzZfV7JTCVWZD0Uv-5" style="edgeStyle=orthogonalEdgeStyle;curved=1;rounded=0;orthogonalLoop=1;jettySize=auto;html=1;exitX=0.5;exitY=1;exitDx=0;exitDy=0;entryX=0;entryY=0;entryDx=0;entryDy=24.0078759080116;entryPerimeter=0;" edge="1" parent="1" source="5B7SjK0EThuRWsHx0DVS-10" target="3F4RCSw5QOM7stesSiCV-1">
          <mxGeometry relative="1" as="geometry" />
        </mxCell>
        <mxCell id="kLn1nzZfV7JTCVWZD0Uv-20" value="Subscribe" style="edgeLabel;html=1;align=center;verticalAlign=middle;resizable=0;points=[];" vertex="1" connectable="0" parent="kLn1nzZfV7JTCVWZD0Uv-5">
          <mxGeometry x="0.3117" y="5" relative="1" as="geometry">
            <mxPoint as="offset" />
          </mxGeometry>
        </mxCell>
        <mxCell id="kLn1nzZfV7JTCVWZD0Uv-6" style="edgeStyle=orthogonalEdgeStyle;curved=1;rounded=0;orthogonalLoop=1;jettySize=auto;html=1;exitX=0.75;exitY=1;exitDx=0;exitDy=0;entryX=0.5;entryY=1;entryDx=0;entryDy=0;entryPerimeter=0;" edge="1" parent="1" source="5B7SjK0EThuRWsHx0DVS-10" target="5B7SjK0EThuRWsHx0DVS-36">
          <mxGeometry relative="1" as="geometry" />
        </mxCell>
        <mxCell id="kLn1nzZfV7JTCVWZD0Uv-19" value="Subscribe" style="edgeLabel;html=1;align=center;verticalAlign=middle;resizable=0;points=[];" vertex="1" connectable="0" parent="kLn1nzZfV7JTCVWZD0Uv-6">
          <mxGeometry x="-0.0848" y="1" relative="1" as="geometry">
            <mxPoint as="offset" />
          </mxGeometry>
        </mxCell>
        <mxCell id="5B7SjK0EThuRWsHx0DVS-10" value="Topic-01" style="html=1;whiteSpace=wrap;container=1;recursiveResize=0;collapsible=0;" parent="1" vertex="1">
          <mxGeometry x="370" y="330" width="90" height="20" as="geometry" />
        </mxCell>
        <mxCell id="5B7SjK0EThuRWsHx0DVS-23" style="rounded=0;orthogonalLoop=1;jettySize=auto;html=1;exitX=1;exitY=0.5;exitDx=0;exitDy=0;exitPerimeter=0;strokeColor=#FF3333;" parent="1" source="5B7SjK0EThuRWsHx0DVS-16" target="5B7SjK0EThuRWsHx0DVS-1" edge="1">
          <mxGeometry relative="1" as="geometry" />
        </mxCell>
        <mxCell id="5B7SjK0EThuRWsHx0DVS-25" value="Send" style="edgeLabel;html=1;align=center;verticalAlign=middle;resizable=0;points=[];" parent="5B7SjK0EThuRWsHx0DVS-23" vertex="1" connectable="0">
          <mxGeometry x="-0.1875" y="2" relative="1" as="geometry">
            <mxPoint as="offset" />
          </mxGeometry>
        </mxCell>
        <mxCell id="5B7SjK0EThuRWsHx0DVS-16" value="" style="whiteSpace=wrap;html=1;shape=mxgraph.basic.isocube;isoAngle=15;fillColor=#CCE5FF;" parent="1" vertex="1">
          <mxGeometry x="20" y="166.25" width="100" height="67.5" as="geometry" />
        </mxCell>
        <mxCell id="5B7SjK0EThuRWsHx0DVS-17" value="Producer" style="text;html=1;strokeColor=none;fillColor=none;align=center;verticalAlign=middle;whiteSpace=wrap;rounded=0;" parent="1" vertex="1">
          <mxGeometry x="50" y="180" width="40" height="20" as="geometry" />
        </mxCell>
        <mxCell id="5B7SjK0EThuRWsHx0DVS-29" value="" style="whiteSpace=wrap;html=1;shape=mxgraph.basic.isocube;isoAngle=15;fillColor=#66B2FF;" parent="1" vertex="1">
          <mxGeometry x="30" y="336.25" width="100" height="67.5" as="geometry" />
        </mxCell>
        <mxCell id="5B7SjK0EThuRWsHx0DVS-30" value="Producer" style="text;html=1;strokeColor=none;fillColor=none;align=center;verticalAlign=middle;whiteSpace=wrap;rounded=0;" parent="1" vertex="1">
          <mxGeometry x="55" y="350" width="50" height="20" as="geometry" />
        </mxCell>
        <mxCell id="5B7SjK0EThuRWsHx0DVS-31" style="rounded=0;orthogonalLoop=1;jettySize=auto;html=1;exitX=1;exitY=0.5;exitDx=0;exitDy=0;exitPerimeter=0;strokeColor=#FF3333;entryX=0;entryY=0.5;entryDx=0;entryDy=0;" parent="1" source="5B7SjK0EThuRWsHx0DVS-29" target="5B7SjK0EThuRWsHx0DVS-2" edge="1">
          <mxGeometry relative="1" as="geometry">
            <mxPoint x="120" y="380" as="sourcePoint" />
            <mxPoint x="273" y="359" as="targetPoint" />
          </mxGeometry>
        </mxCell>
        <mxCell id="5B7SjK0EThuRWsHx0DVS-32" value="Send" style="edgeLabel;html=1;align=center;verticalAlign=middle;resizable=0;points=[];" parent="5B7SjK0EThuRWsHx0DVS-31" vertex="1" connectable="0">
          <mxGeometry x="-0.1875" y="2" relative="1" as="geometry">
            <mxPoint as="offset" />
          </mxGeometry>
        </mxCell>
        <mxCell id="5B7SjK0EThuRWsHx0DVS-35" value="" style="whiteSpace=wrap;html=1;shape=mxgraph.basic.isocube;isoAngle=15;fillColor=#00FF00;" parent="1" vertex="1">
          <mxGeometry x="568" y="81" width="100" height="67.5" as="geometry" />
        </mxCell>
        <mxCell id="5B7SjK0EThuRWsHx0DVS-36" value="" style="whiteSpace=wrap;html=1;shape=mxgraph.basic.isocube;isoAngle=15;fillColor=#00FF00;" parent="1" vertex="1">
          <mxGeometry x="580" y="306.25" width="100" height="67.5" as="geometry" />
        </mxCell>
        <mxCell id="5B7SjK0EThuRWsHx0DVS-40" value="Consumer1" style="text;html=1;strokeColor=none;fillColor=none;align=center;verticalAlign=middle;whiteSpace=wrap;rounded=0;" parent="1" vertex="1">
          <mxGeometry x="598" y="91" width="40" height="23.75" as="geometry" />
        </mxCell>
        <mxCell id="5B7SjK0EThuRWsHx0DVS-43" value="Consumer1" style="text;html=1;strokeColor=none;fillColor=none;align=center;verticalAlign=middle;whiteSpace=wrap;rounded=0;" parent="1" vertex="1">
          <mxGeometry x="610" y="320" width="40" height="20" as="geometry" />
        </mxCell>
        <mxCell id="3F4RCSw5QOM7stesSiCV-1" value="" style="whiteSpace=wrap;html=1;shape=mxgraph.basic.isocube;isoAngle=15;fillColor=#FF9999;" parent="1" vertex="1">
          <mxGeometry x="590" y="403.75" width="100" height="67.5" as="geometry" />
        </mxCell>
        <mxCell id="3F4RCSw5QOM7stesSiCV-2" value="Consumer2" style="text;html=1;strokeColor=none;fillColor=#FF9999;align=center;verticalAlign=middle;whiteSpace=wrap;rounded=0;" parent="1" vertex="1">
          <mxGeometry x="620" y="417.5" width="40" height="20" as="geometry" />
        </mxCell>
        <mxCell id="3F4RCSw5QOM7stesSiCV-3" value="" style="whiteSpace=wrap;html=1;shape=mxgraph.basic.isocube;isoAngle=15;fillColor=#FF9999;" parent="1" vertex="1">
          <mxGeometry x="572" y="177" width="100" height="67.5" as="geometry" />
        </mxCell>
        <mxCell id="3F4RCSw5QOM7stesSiCV-4" value="Consumer3" style="text;html=1;strokeColor=none;fillColor=none;align=center;verticalAlign=middle;whiteSpace=wrap;rounded=0;" parent="1" vertex="1">
          <mxGeometry x="606.5" y="190.5" width="31" height="21.5" as="geometry" />
        </mxCell>
        <mxCell id="kLn1nzZfV7JTCVWZD0Uv-2" style="edgeStyle=orthogonalEdgeStyle;curved=1;rounded=0;orthogonalLoop=1;jettySize=auto;html=1;exitX=0.5;exitY=0;exitDx=0;exitDy=0;entryX=0.32;entryY=0.104;entryDx=0;entryDy=0;entryPerimeter=0;" edge="1" parent="1" source="3F4RCSw5QOM7stesSiCV-14" target="3F4RCSw5QOM7stesSiCV-3">
          <mxGeometry relative="1" as="geometry" />
        </mxCell>
        <mxCell id="kLn1nzZfV7JTCVWZD0Uv-18" value="Subscribe" style="edgeLabel;html=1;align=center;verticalAlign=middle;resizable=0;points=[];" vertex="1" connectable="0" parent="kLn1nzZfV7JTCVWZD0Uv-2">
          <mxGeometry x="0.0727" y="-5" relative="1" as="geometry">
            <mxPoint as="offset" />
          </mxGeometry>
        </mxCell>
        <mxCell id="3F4RCSw5QOM7stesSiCV-14" value="replica-Topic-01" style="html=1;whiteSpace=wrap;container=1;recursiveResize=0;collapsible=0;" parent="1" vertex="1">
          <mxGeometry x="370" y="215" width="90" height="25" as="geometry" />
        </mxCell>
        <mxCell id="kLn1nzZfV7JTCVWZD0Uv-4" style="edgeStyle=orthogonalEdgeStyle;curved=1;rounded=0;orthogonalLoop=1;jettySize=auto;html=1;exitX=0.5;exitY=1;exitDx=0;exitDy=0;entryX=0;entryY=0;entryDx=0;entryDy=43.4921240919884;entryPerimeter=0;" edge="1" parent="1" source="3F4RCSw5QOM7stesSiCV-22" target="3F4RCSw5QOM7stesSiCV-1">
          <mxGeometry relative="1" as="geometry" />
        </mxCell>
        <mxCell id="kLn1nzZfV7JTCVWZD0Uv-21" value="Subscribe" style="edgeLabel;html=1;align=center;verticalAlign=middle;resizable=0;points=[];" vertex="1" connectable="0" parent="kLn1nzZfV7JTCVWZD0Uv-4">
          <mxGeometry x="0.1883" y="8" relative="1" as="geometry">
            <mxPoint as="offset" />
          </mxGeometry>
        </mxCell>
        <mxCell id="3F4RCSw5QOM7stesSiCV-22" value="replica-Topic-01" style="html=1;whiteSpace=wrap;container=1;recursiveResize=0;collapsible=0;" parent="1" vertex="1">
          <mxGeometry x="280" y="330" width="90" height="20" as="geometry" />
        </mxCell>
        <mxCell id="kLn1nzZfV7JTCVWZD0Uv-9" value="" style="shape=singleArrow;direction=north;whiteSpace=wrap;html=1;" vertex="1" parent="1">
          <mxGeometry x="320" y="240" width="20" height="90" as="geometry" />
        </mxCell>
        <mxCell id="kLn1nzZfV7JTCVWZD0Uv-10" value="" style="shape=singleArrow;direction=south;whiteSpace=wrap;html=1;arrowWidth=0.2777777777777778;arrowSize=0.27058823529411763;" vertex="1" parent="1">
          <mxGeometry x="397.75" y="240" width="22.25" height="90" as="geometry" />
        </mxCell>
        <UserObject label="replicator-plugin" treeRoot="1" id="kLn1nzZfV7JTCVWZD0Uv-11">
          <mxCell style="whiteSpace=wrap;html=1;align=center;treeFolding=1;treeMoving=1;newEdgeStyle={&quot;edgeStyle&quot;:&quot;elbowEdgeStyle&quot;,&quot;startArrow&quot;:&quot;none&quot;,&quot;endArrow&quot;:&quot;none&quot;};" vertex="1" collapsed="1" parent="1">
            <mxGeometry x="170" y="260" width="118" height="50" as="geometry" />
          </mxCell>
        </UserObject>
        <mxCell id="kLn1nzZfV7JTCVWZD0Uv-12" value="跨机房复制" style="text;html=1;strokeColor=none;fillColor=none;align=center;verticalAlign=middle;whiteSpace=wrap;rounded=0;" vertex="1" parent="1">
          <mxGeometry x="295" y="270" width="70" height="15" as="geometry" />
        </mxCell>
        <mxCell id="kLn1nzZfV7JTCVWZD0Uv-13" value="跨机房复制" style="text;html=1;strokeColor=none;fillColor=none;align=center;verticalAlign=middle;whiteSpace=wrap;rounded=0;" vertex="1" parent="1">
          <mxGeometry x="373.88" y="285" width="70" height="15" as="geometry" />
        </mxCell>
      </root>
    </mxGraphModel>
  </diagram>
</mxfile>
